<?xml version="1.0" encoding="UTF-8"?>
<svg xmlns="http://www.w3.org/2000/svg" version="1.1" viewBox="0 0 20 20">
  <!-- Generator: Adobe Illustrator 29.2.1, SVG Export Plug-In . SVG Version: 2.1.0 Build 116)  -->
  <defs>
    <style>
      .st0 {
        fill: none;
      }

      .st1 {
        display: none;
      }
    </style>
  </defs>
  <g id="Layer_1" class="st1">
    <path d="M17.1,6h-2.1v-2.5c0-.5-.4-1-1-1h-2.1c-.1-.3-.4-.5-.8-.5h-.7c-.2-.6-.8-1-1.4-1s-1.2.4-1.4,1h-.7c-.3,0-.6.2-.8.5h-2.1c-.5,0-1,.4-1,1v11.5c0,.5.4,1,1,1h3v1.1c0,.5.4.9.9.9h9.2c.5,0,.9-.4.9-.9V6.9c0-.5-.4-.9-.9-.9h0ZM7,3h1.5v-.5c0-.3.2-.5.5-.5s.5.2.5.5v.5h1.5v1h-4v-1ZM7,6.9v7.6h-2.5V4h1.5c0,.6.4,1,.9,1h4.2c.5,0,.9-.4.9-.9h0c0-.1,1.5-.1,1.5-.1v2h-5.6c-.5,0-.9.4-.9.9h0ZM16.5,16.5h-8V7.5h8v9Z"/>
    <path d="M12.5,13h-2c-.3,0-.5.2-.5.5s.2.5.5.5h2c.3,0,.5-.2.5-.5s-.2-.5-.5-.5Z"/>
    <path d="M14.5,9h-4c-.3,0-.5.2-.5.5s.2.5.5.5h4c.3,0,.5-.2.5-.5s-.2-.5-.5-.5Z"/>
    <path d="M14.5,11h-4c-.3,0-.5.2-.5.5s.2.5.5.5h4c.3,0,.5-.2.5-.5s-.2-.5-.5-.5Z"/>
  </g>
  <g id="New_Copy" class="st1">
    <g>
      <path d="M12.5,18.5H1.5V7h11v11.5ZM6.5,4.5v-2h11v12.5h-2.5v1.5h2.8c.7,0,1.2-.4,1.2-1V2.1c0-.6-.5-1.1-1.2-1.1H6.2c-.7,0-1.2.5-1.2,1.1v2.4h1.5ZM1.2,5.5c-.7,0-1.2.5-1.2,1.1v12.4c0,.6.5,1,1.2,1h11.6c.7,0,1.2-.4,1.2-1V6.6c0-.6-.5-1.1-1.2-1.1H1.2Z"/>
      <path d="M10.5,12H3.5c-.4,0-.8.3-.8.8s.3.8.8.8h7c.4,0,.8-.3.8-.8s-.3-.8-.8-.8Z"/>
      <path d="M2.8,9.8c0,.4.3.8.8.8h7c.4,0,.8-.3.8-.8s-.3-.8-.8-.8H3.5c-.4,0-.8.3-.8.8Z"/>
      <path d="M8.5,15H3.5c-.4,0-.8.3-.8.8s.3.8.8.8h5c.4,0,.8-.3.8-.8s-.3-.8-.8-.8Z"/>
    </g>
  </g>
  <g id="Layer_5">
    <path class="st0" d="M1.5,18.5h11V7H1.5v11.5ZM4,9h6c.4,0,.8.3.8.8s-.3.8-.8.8h-6c-.4,0-.8-.3-.8-.8s.3-.8.8-.8ZM4,12h6c.4,0,.8.3.8.8s-.3.8-.8.8h-6c-.4,0-.8-.3-.8-.8s.3-.8.8-.8ZM4,15h4c.4,0,.8.3.8.8s-.3.8-.8.8h-4c-.4,0-.8-.3-.8-.8s.3-.8.8-.8Z"/>
    <path d="M12.8,5.5H1.2c-.7,0-1.2.5-1.2,1.1v12.4c0,.6.5,1,1.2,1h11.6c.7,0,1.2-.4,1.2-1V6.6c0-.6-.5-1.1-1.2-1.1ZM12.5,18.5H1.5V7h11v11.5Z"/>
    <path d="M4,13.5h6c.4,0,.8-.3.8-.8s-.3-.8-.8-.8h-6c-.4,0-.8.3-.8.8s.3.8.8.8Z"/>
    <path d="M4,10.5h6c.4,0,.8-.3.8-.8s-.3-.8-.8-.8h-6c-.4,0-.8.3-.8.8s.3.8.8.8Z"/>
    <path d="M4,16.5h4c.4,0,.8-.3.8-.8s-.3-.8-.8-.8h-4c-.4,0-.8.3-.8.8s.3.8.8.8Z"/>
    <path d="M17.8,1h-1.8c0-.6-.6-1-1.2-1h-5.6c-.6,0-1.1.4-1.2,1h-1.8c-.7,0-1.2.5-1.2,1.1v2.4h1.5v-2h1.5v1c0,.6.5,1,1.2,1h5.6c.7,0,1.2-.4,1.2-1v-1h1.5v12.5h-2.5v1.5h2.8c.7,0,1.2-.4,1.2-1V2.1c0-.6-.5-1.1-1.2-1.1ZM14.5,3h-5v-1.5h5v1.5Z"/>
  </g>
  <g id="Layer_2" class="st1">
    <g>
      <path d="M12.5,18.5H1.5V6h11v12.5ZM6.5,3.5V1.5h11v12.5h-2.5v1.5h2.8c.7,0,1.2-.4,1.2-1V1.1c0-.6-.5-1.1-1.2-1.1H6.2c-.7,0-1.2.5-1.2,1.1v2.4h1.5ZM1.2,4.5c-.7,0-1.2.5-1.2,1.1v13.4c0,.6.5,1,1.2,1h11.6c.7,0,1.2-.4,1.2-1V5.6c0-.6-.5-1.1-1.2-1.1H1.2Z"/>
      <path d="M10.5,11.5H3.5c-.4,0-.8.3-.8.8s.3.8.8.8h7c.4,0,.8-.3.8-.8s-.3-.8-.8-.8Z"/>
      <path d="M2.8,9.2c0,.4.3.8.8.8h7c.4,0,.8-.3.8-.8s-.3-.8-.8-.8H3.5c-.4,0-.8.3-.8.8Z"/>
      <path d="M8.5,14.5H3.5c-.4,0-.8.3-.8.8s.3.8.8.8h5c.4,0,.8-.3.8-.8s-.3-.8-.8-.8Z"/>
    </g>
  </g>
</svg>