<!-- <svg xmlns="http://www.w3.org/2000/svg" viewBox="0 0 400 336.842"><path d="M33.024 16.512v16.512H0v61.669h33.024v20.387c0 20.163.008 20.388.674 20.388.45 0 .674.224.674.674 0 .668.225.674 29.486.674 29.262 0 29.487-.006 29.487-.674 0-.45.224-.674.674-.674.666 0 .674-.225.674-20.388V94.693h20.387c20.163 0 20.388-.008 20.388-.674 0-.45.224-.674.674-.674.668 0 .674-.225.674-29.487 0-29.261-.006-29.486-.674-29.486-.45 0-.674-.224-.674-.674 0-.666-.225-.674-20.388-.674H94.693V0H33.024v16.512M327.548 5.897v5.897h-9.772c-9.548 0-9.773.016-9.773.674 0 .45-.224.674-.674.674-.658 0-.674.225-.674 9.941v9.941h-9.941c-9.716 0-9.941.016-9.941.674 0 .45-.224.674-.674.674-.658 0-.674.225-.674 9.773v9.772h-9.772c-9.548 0-9.773.016-9.773.674 0 .45-.224.674-.674.674-.658 0-.674.225-.674 9.941v9.941h-9.941c-9.716 0-9.941.016-9.941.674 0 .45-.224.674-.674.674-.658 0-.674.225-.674 9.773v9.772h-9.772c-9.548 0-9.773.016-9.773.674 0 .45-.224.674-.674.674-.658 0-.674.225-.674 9.941v9.941h-9.941c-9.716 0-9.941.016-9.941.674 0 .45-.224.674-.674.674-.658 0-.674.225-.674 9.773v9.772h-9.772c-9.548 0-9.773.016-9.773.674 0 .45-.224.674-.674.674-.658 0-.674.225-.674 9.941v9.941h-9.941c-9.716 0-9.941.016-9.941.674 0 .45-.224.674-.674.674-.658 0-.674.225-.674 9.773v9.772h-9.772c-9.548 0-9.773.016-9.773.674 0 .45-.224.674-.674.674-.658 0-.674.225-.674 9.941v9.941h-9.941c-9.716 0-9.941.016-9.941.674 0 .375-.224.674-.505.674-.438 0-.506 1.311-.506 9.773v9.772h-9.941c-9.716 0-9.941.016-9.941.674 0 .45-.224.674-.674.674-.658 0-.674.225-.674 9.941v9.941h-9.941c-9.716 0-9.941.016-9.941.674 0 .375-.224.674-.505.674-.438 0-.506 1.311-.506 9.773v9.772h-9.941c-9.716 0-9.941.016-9.941.674 0 .45-.224.674-.674.674-.658 0-.674.225-.674 9.941v9.941h-9.772c-9.548 0-9.773.016-9.773.674 0 .45-.224.674-.674.674-.666 0-.674.225-.674 19.04 0 18.815.008 19.04.674 19.04.45 0 .674.224.674.674 0 .658.225.673 9.773.673h9.772v10.447h40.776v-10.447h9.941c9.716 0 9.941-.015 9.941-.673 0-.45.224-.674.674-.674.658 0 .673-.225.673-9.941v-9.942h9.773c9.548 0 9.773-.015 9.773-.673 0-.45.224-.674.674-.674.658 0 .674-.225.674-9.773v-9.773h9.941c9.716 0 9.941-.015 9.941-.673 0-.45.224-.674.674-.674.658 0 .673-.225.673-9.941v-9.942h9.773c9.548 0 9.773-.015 9.773-.673 0-.45.224-.674.674-.674.658 0 .674-.225.674-9.773v-9.773h9.941c9.716 0 9.941-.015 9.941-.673 0-.375.224-.674.505-.674.438 0 .506-1.33.506-9.941v-9.942h9.941c9.716 0 9.941-.015 9.941-.673 0-.45.224-.674.674-.674.658 0 .673-.225.673-9.773v-9.773h9.942c9.716 0 9.941-.015 9.941-.673 0-.375.224-.674.505-.674.438 0 .506-1.33.506-9.941v-9.941h20.387c20.163 0 20.388-.008 20.388-.674 0-.45.224-.674.674-.674.666 0 .674-.225.674-20.388v-20.387h9.941c9.716 0 9.941-.016 9.941-.674 0-.45.224-.674.674-.674.658 0 .673-.225.673-9.773v-9.773h9.773c9.548 0 9.773-.015 9.773-.673 0-.45.224-.674.674-.674.658 0 .674-.225.674-9.941v-9.941h9.941c9.716 0 9.941-.016 9.941-.674 0-.45.224-.674.674-.674.658 0 .673-.225.673-9.773v-9.773h9.773c9.548 0 9.773-.015 9.773-.673 0-.45.224-.674.674-.674.658 0 .674-.225.674-9.941V52.57h9.941c9.716 0 9.941-.016 9.941-.674 0-.45.224-.674.674-.674.666 0 .673-.225.673-19.04 0-18.815-.007-19.04-.673-19.04-.45 0-.674-.224-.674-.674 0-.658-.225-.674-9.941-.674h-9.941V0h-40.776v5.897M160.404 33.698c0 .45-.224.674-.674.674-.668 0-.674.225-.674 29.486 0 29.262.006 29.487.674 29.487.45 0 .674.224.674.674 0 .67.225.674 40.27.674s40.27-.004 40.27-.674c0-.375.224-.674.505-.674.438 0 .506-1.311.506-9.773v-9.773h9.941c9.716 0 9.941-.015 9.941-.673 0-.45.224-.674.674-.674.666 0 .673-.225.673-19.04 0-18.815-.007-19.04-.673-19.04-.45 0-.674-.224-.674-.674 0-.671-.225-.674-50.717-.674-50.491 0-50.716.003-50.716.674m210.615 20.893c0 .45-.224.674-.674.674-.666 0-.674.225-.674 19.04 0 18.815.008 19.04.674 19.04.45 0 .674.224.674.674 0 .663.225.674 14.491.674H400V53.917h-14.49c-14.266 0-14.491.011-14.491.674m-84.246 84.246c0 .45-.224.674-.674.674-.666 0-.674.225-.674 19.04 0 18.815.008 19.04.674 19.04.45 0 .674.224.674.674 0 .668.225.674 29.655.674s29.655-.006 29.655-.674c0-.45.224-.674.674-.674.666 0 .673-.225.673-19.04 0-18.815-.007-19.04-.673-19.04-.45 0-.674-.224-.674-.674 0-.668-.225-.674-29.655-.674s-29.655.006-29.655.674m63.353 0c0 .45-.224.674-.674.674-.666 0-.674.225-.674 19.04 0 18.815.008 19.04.674 19.04.45 0 .674.224.674.674 0 .658.225.674 9.773.674h9.772v9.941c0 9.716.016 9.941.674 9.941.45 0 .674.224.674.674 0 .663.225.673 14.491.673H400V138.163h-24.937c-24.712 0-24.937.007-24.937.674m20.893 63.353c0 .45-.224.674-.674.674-.668 0-.674.225-.674 29.486 0 29.262.006 29.487.674 29.487.45 0 .674.224.674.674 0 .663.225.673 14.491.673H400v-61.668h-14.49c-14.266 0-14.491.011-14.491.674m-210.615 63.016c0 .45-.224.674-.674.674-.668 0-.674.225-.674 29.655s.006 29.655.674 29.655c.45 0 .674.224.674.674 0 .668.225.673 29.655.673s29.655-.005 29.655-.673c0-.45.224-.674.674-.674.666 0 .673-.225.673-19.04 0-18.815-.007-19.04-.673-19.04-.45 0-.674-.224-.674-.674 0-.658-.225-.674-9.941-.674h-9.941v-9.941c0-8.611-.068-9.941-.506-9.941-.281 0-.505-.299-.505-.674 0-.666-.225-.674-19.209-.674-18.983 0-19.208.008-19.208.674m210.615 0c0 .45-.224.674-.674.674-.658 0-.674.225-.674 9.941v9.941h-9.772c-9.548 0-9.773.016-9.773.674 0 .45-.224.674-.674.674-.666 0-.674.225-.674 19.04 0 18.815.008 19.04.674 19.04.45 0 .674.224.674.674 0 .667.225.673 24.937.673H400V264.532h-14.49c-14.266 0-14.491.011-14.491.674m-147.262 21.23c0 .45-.224.674-.674.674-.666 0-.674.225-.674 19.04 0 18.815.008 19.04.674 19.04.45 0 .674.224.674.674 0 .668.225.673 29.486.673 29.262 0 29.487-.005 29.487-.673 0-.45.224-.674.674-.674.666 0 .674-.225.674-19.04 0-18.815-.008-19.04-.674-19.04-.45 0-.674-.224-.674-.674 0-.668-.225-.674-29.487-.674-29.261 0-29.486.006-29.486.674m63.016 0c0 .45-.224.674-.674.674-.666 0-.674.225-.674 19.04 0 18.815.008 19.04.674 19.04.45 0 .674.224.674.674 0 .668.225.673 29.655.673s29.655-.005 29.655-.673c0-.45.224-.674.674-.674.666 0 .673-.225.673-19.04 0-18.815-.007-19.04-.673-19.04-.45 0-.674-.224-.674-.674 0-.668-.225-.674-29.655-.674s-29.655.006-29.655.674" fill="#010101" fill-rule="evenodd"/></svg> -->

<svg xmlns="http://www.w3.org/2000/svg" viewBox="0 0 24 24">
  <g fill="#010101">
    <polygon points="3 7 6 3 0 3 3 7"/>
    <path d="M9 6h14c.6 0 1-.4 1-1s-.4-1-1-1h-14c-.6 0-1 .4-1 1s.4 1 1 1Z"/>
    <polygon points="3 21 6 17 0 17 3 21"/>
    <path d="M13.9 18h-4.8c-.6 0-1 .4-1 1s.4 1 1 1h5.8l.5-.5-1.5-1.5Z"/>
    <polygon points="3 14 6 10 0 10 3 14"/>
    <path d="M23 11h-14c-.6 0-1 .4-1 1s.4 1 1 1h14c-.6 0 1-.4 1-1s-.4-1 1-1Z"/>
    <path d="M23.7 15.3c-.4-.4-1-.4-1.4 0l-2.8 2.8-2.8-2.8c-.4-.4-1-.4-1.4 0-.4.4-.4 1 0 1.4l2.8 2.8-2.8 2.8c-.4.4-.4 1 0 1.4.4.4 1 .4 1.4 0l2.8-2.8 2.8 2.8c.4.4 1 .4 1.4 0 .4-.4.4-1 0-1.4l-2.8-2.8 2.8-2.8c.4-.4.4-1 0-1.4Z"/>
  </g>
</svg>
