<svg viewBox="0 0 492 492" xmlns="http://www.w3.org/2000/svg"><path d="m492 31.94v430.13c-3.28 16.06-14.97 26.91-30.94 29.94h-430.12c-17-4.04-28.57-15.51-29.98-33.4v-425.21c1.69-18.14 16.33-31.68 34.43-32.44h422.22c16.79.19 32.29 14.49 34.39 30.98zm-34.93 3.99h-421.14v46.9h421.14zm0 81.83h-421.14v339.31h421.14z"/><path d="m30.94 492h-30.94v-492h492v31.94c-2.1-16.49-17.6-30.78-34.39-30.98h-422.22c-18.1.76-32.74 14.3-34.43 32.44v425.21c1.41 17.88 12.98 29.36 29.98 33.4z" fill="#fff"/><path d="m492 462.06v29.94h-30.94c15.96-3.03 27.66-13.88 30.94-29.94z" fill="#fff"/><path d="m111.56 149.98 267.21-.32c15.11 1.19 27.65 12.1 31.12 26.76 2.97 69.53.4 139.61 1.31 209.33-1.27 16.09-11.32 28.55-26.73 33.15-89.19 2.91-178.87.39-268.24 1.28-18.45-1.45-32.8-14.85-34.38-33.48v-204.55c1.48-16.52 13.43-29.49 29.71-32.17zm264.68 34.64h-259.48v200.59h259.47v-200.59z"/><path d="m237.26 218.8c16.41-2.66 28.91 21.03 40.82 29.63 2.36.42 24.1-25.21 30.62-28.05 7.71-3.36 16.7-1.31 21.64 5.67 13.09 18.47-17.83 34.1-26.88 47.05-.4 2.24 25.13 24.2 28.04 30.63 5.07 11.17-1.72 23.99-14.09 25.17-13.97 1.33-28.32-21.77-38.61-29.42-3.07-.54-23.11 22.2-27.29 25.4-13.33 10.2-30.2-.46-27.87-16.9 1.44-10.2 23.33-25.31 29.83-34.01 0-2.24-27.92-24.57-29.69-33.16-1.95-9.48 3.57-20.38 13.48-21.98z"/></svg>