<svg viewBox="0 0 20 20" xmlns="http://www.w3.org/2000/svg"><path d="m12.5 18.5h-11v-11.5h11zm-11.3-13c-.7 0-1.2.5-1.2 1.1v12.4c0 .6.5 1 1.2 1h11.6c.7 0 1.2-.4 1.2-1v-12.4c0-.6-.5-1.1-1.2-1.1z"/><path d="m10 10.5h-6c-.3 0-.5-.2-.5-.5s.2-.5.5-.5h6c.3 0 .5.2.5.5s-.2.5-.5.5z"/><path d="m10 13h-6c-.3 0-.5-.2-.5-.5s.2-.5.5-.5h6c.3 0 .5.2.5.5s-.2.5-.5.5z"/><path d="m7 15.5h-3c-.3 0-.5-.2-.5-.5s.2-.5.5-.5h3c.3 0 .5.2.5.5s-.2.5-.5.5z"/><path d="m19 2.5v12.5h-3.5v1h3.5c.6 0 1-.4 1-1v-12.5c0-.6-.4-1-1-1h-12c-.6 0-1 .4-1 1v2h1v-2z"/></svg>