<svg viewBox="0 0 20 20" xmlns="http://www.w3.org/2000/svg"><path d="m12.5 18.5h-11v-10.5h11zm-6-13v-2h11v12.5h-2.5v1.5h2.8c.7 0 1.2-.4 1.2-1v-13.4c0-.6-.5-1.1-1.2-1.1h-11.6c-.7 0-1.2.5-1.2 1.1v2.4zm-5.3 1c-.7 0-1.2.5-1.2 1.1v11.4c0 .6.5 1 1.2 1h11.6c.7 0 1.2-.4 1.2-1v-11.4c0-.6-.5-1.1-1.2-1.1z"/><path d="m10 11.5h-6c-.3 0-.5-.2-.5-.5s.2-.5.5-.5h6c.3 0 .5.2.5.5s-.2.5-.5.5z"/><path d="m10 14h-6c-.3 0-.5-.2-.5-.5s.2-.5.5-.5h6c.3 0 .5.2.5.5s-.2.5-.5.5z"/><path d="m7 16.5h-3c-.3 0-.5-.2-.5-.5s.2-.5.5-.5h3c.3 0 .5.2.5.5s-.2.5-.5.5z"/></svg>