<svg xmlns="http://www.w3.org/2000/svg" viewBox="0 0 24 24">
  <g fill="#010101">
    <polygon points="3 7 6 3 0 3 3 7"/>
    <path d="M9 6h14c.6 0 1-.4 1-1s-.4-1-1-1h-14c-.6 0-1 .4-1 1s.4 1 1 1Z"/>
    <polygon points="3 21 6 17 0 17 3 21"/>
    <path d="M13.9 18h-4.8c-.6 0-1 .4-1 1s.4 1 1 1h5.8l.5-.5-1.5-1.5Z"/>
    <polygon points="3 14 6 10 0 10 3 14"/>
    <path d="M23 11h-14c-.6 0-1 .4-1 1s.4 1 1 1h14c-.6 0 1-.4 1-1s-.4-1 1-1Z"/>
    <path d="M23.7 15.3c-.4-.4-1-.4-1.4 0l-2.8 2.8-2.8-2.8c-.4-.4-1-.4-1.4 0-.4.4-.4 1 0 1.4l2.8 2.8-2.8 2.8c-.4.4-.4 1 0 1.4.4.4 1 .4 1.4 0l2.8-2.8 2.8 2.8c.4.4 1 .4 1.4 0 .4-.4.4-1 0-1.4l-2.8-2.8 2.8-2.8c.4-.4.4-1 0-1.4Z"/>
  </g>
</svg>
