<svg viewBox="0 0 20 20" xmlns="http://www.w3.org/2000/svg"><path d="m12.8 6.5h-11.6c-.7 0-1.2.5-1.2 1.1v11.4c0 .6.5 1 1.2 1h11.6c.7 0 1.2-.4 1.2-1v-11.4c0-.6-.5-1.1-1.2-1.1zm-.3 12h-11v-10.5h11z"/><path d="m4 11.5h6c.3 0 .5-.2.5-.5s-.2-.5-.5-.5h-6c-.3 0-.5.2-.5.5s.2.5.5.5z"/><path d="m4 14h6c.3 0 .5-.2.5-.5s-.2-.5-.5-.5h-6c-.3 0-.5.2-.5.5s.2.5.5.5z"/><path d="m4 16.5h3c.3 0 .5-.2.5-.5s-.2-.5-.5-.5h-3c-.3 0-.5.2-.5.5s.2.5.5.5z"/><path d="m18.8 1.5h-1.8v-.4c0-.6-.5-1.1-1.2-1.1h-5.6c-.7 0-1.2.5-1.2 1.1v.4h-1.8c-.7 0-1.2.5-1.2 1.1v2.9h1.5v-2.5h1.5v.5c0 .6.5 1 1.2 1h5.6c.7 0 1.2-.4 1.2-1v-.5h1.5v12.5h-3v1.5h3.3c.7 0 1.2-.4 1.2-1v-13.4c0-.6-.5-1.1-1.2-1.1zm-3.3 1.5h-5v-1.5h5z"/></svg>