<svg xmlns="http://www.w3.org/2000/svg" viewBox="0 0 20 20"><ellipse cx="9.95" cy="5.5" fill="#010101" rx="4.47" ry="4.5"/><path d="m13.57 16.75-.91-.91c-.43-.42-.66-.99-.66-1.59s.23-1.17.66-1.59.99-.66 1.59-.66c.4 0 .79.11 1.12.31-1.04-.82-2.33-1.31-3.74-1.31h-3.27c-3.58 0-6.36 3.1-6.36 6.9 0 .6.5 1.1 1.09 1.1h8.93c.06-.51.27-.98.63-1.34l.91-.91z" fill="#010101"/><path d="m17.81 16.75 1.97-1.97c.29-.29.29-.77 0-1.06-.15-.15-.34-.22-.53-.22s-.38.07-.53.22l-1.97 1.97-1.97-1.97c-.15-.15-.34-.22-.53-.22s-.38.07-.53.22c-.29.29-.29.77 0 1.06l1.97 1.97-1.97 1.97c-.08.08-.13.18-.17.28-.09.26-.04.57.17.78.15.15.34.22.53.22s.38-.07.53-.22l1.97-1.97 1.97 1.97c.15.15.34.22.53.22s.38-.07.53-.22c.29-.29.29-.77 0-1.06z"/></svg>